<svg width="86" height="100" viewBox="0 0 86 100" fill="none" xmlns="http://www.w3.org/2000/svg">
<path fill-rule="evenodd" clip-rule="evenodd" d="M29.6225 83.9417H59.9081C59.9081 79.2908 59.5999 78.3669 52.4707 78.3669C53.6098 74.6745 58.2384 65.7433 60.8113 65.7433C63.0894 65.7433 65.8044 65.8794 65.8044 71.4889C65.8044 77.8601 75.7263 88.1351 78.133 83.9417C81.7191 77.698 71.9687 79.6035 71.9687 64.5386C71.9687 43.9336 83.0966 46.8672 83.0966 35.289C83.0966 29.497 81.6172 28.7151 81.6172 24.5738C81.6172 19.1024 86.0797 19.4201 85.2113 14.8824C84.6109 11.7481 84.1419 9.23434 83.7935 5.44407C83.5442 2.75456 83.4638 -0.111896 80.8802 0.00336478C77.8436 0.138897 76.6911 5.91612 71.9687 6.33053C67.257 6.74379 63.2395 1.9961 61.4143 2.67434C59.6079 3.3465 60.1761 8.64733 61.2482 12.4121C62.934 18.3292 66.6084 26.0218 59.9081 27.1802C53.2077 28.3386 41.6831 29.497 33.3747 41.3706C25.0663 53.2442 25.3718 67.1797 22.1181 71.4889C11.1941 85.9573 0 80.0176 0 92.0505C0 97.4399 8.44914 101.318 9.78921 99.5801C11.1293 97.8425 -1.59736 92.6674 12.6425 86.5481C24.809 81.3237 25.8944 80.258 29.6225 83.9417Z" fill="#FAFAFA"/>
</svg>
