<svg width="80" height="96" viewBox="0 0 80 96" fill="none" xmlns="http://www.w3.org/2000/svg">
<path d="M2.35947 76.5458H6.13288C5.41684 91.9459 20.3774 94.9909 32.0142 94.5052C32.495 95.3959 33.3798 96 34.4039 96H46.2454C47.778 96 49.0202 94.6605 49.0202 93.0081V90.3722C49.0202 88.7197 47.7778 87.3803 46.2454 87.3803H34.4039C33.0534 87.3803 31.9307 88.4212 31.6823 89.7996C22.2647 90.326 10.0845 88.8076 10.5681 76.5468H15.6749C16.9779 76.5468 18.0333 75.4078 18.0333 74.0027V44.2045C18.0333 42.7995 16.9768 41.6604 15.6749 41.6604H8.52829C9.46049 23.3216 23.5552 8.17914 40.1384 8.17914C56.7214 8.17914 70.8162 23.3206 71.7484 41.6604H64.2605C62.9576 41.6604 61.9019 42.7995 61.9019 44.2045V74.0027C61.9019 75.4076 62.9575 76.5468 64.2605 76.5468H77.5768C78.8797 76.5468 79.9363 75.4078 79.9363 74.0027V44.2045C79.9363 43.5736 79.7153 43.004 79.3625 42.5593C78.8474 19.3849 61.1027 0 40.1384 0C19.2829 0 1.61321 19.1856 0.922744 42.2004C0.365069 42.6645 0 43.3855 0 44.2045V74.0027C0 75.4065 1.05647 76.5458 2.35947 76.5458Z" fill="#FAFAFA"/>
</svg>
