<svg width="94" height="102" viewBox="0 0 94 102" fill="none" xmlns="http://www.w3.org/2000/svg">
<path d="M75.559 76.9464C79.5941 83.7006 81.4958 87.2865 81.4958 91.027C81.4958 98.414 76.335 101.996 69.3825 101.996C66.3179 101.996 64.3396 101.992 59.3399 99.2265C59.3399 99.2265 56.1004 96.0749 48.5193 96.3986C40.8675 96.077 37.6261 99.2661 37.6261 99.2661C32.6263 102.029 30.7188 102 27.6581 102C20.7056 102 15.5409 98.4224 15.5409 91.0312C15.5409 87.2907 17.4485 83.709 21.4816 76.9506C21.4816 76.9506 29.1059 63.4902 35.7126 57.1579C40.4864 52.5883 47.4467 52.605 47.4467 52.605H49.5939C49.5939 52.605 56.8587 52.5841 61.3339 57.1579C67.7363 63.72 75.559 76.9485 75.559 76.9464ZM31.5341 43.6036C38.8028 43.6036 44.6944 33.842 44.6944 21.8018C44.6944 9.76162 38.8028 0 31.5341 0C24.2653 0 18.3737 9.76162 18.3737 21.8018C18.3737 33.842 24.2653 43.6036 31.5341 43.6036ZM18.9218 64.7183C24.2791 62.0889 25.501 52.7658 21.6486 43.8939C17.7962 35.022 10.331 29.9595 4.97374 32.5868C-0.383514 35.2141 -1.60348 44.5392 2.24698 53.4112C6.09941 62.2831 13.5646 67.3435 18.9218 64.7183ZM62.1315 43.6036C69.4002 43.6036 75.2938 33.842 75.2938 21.8018C75.2938 9.76162 69.4002 0 62.1315 0C54.8628 0 48.9712 9.76162 48.9712 21.8018C48.9712 33.842 54.8628 43.6036 62.1315 43.6036ZM88.6938 32.5847C83.3346 29.9553 75.8714 35.0178 72.0189 43.8918C68.1665 52.7658 69.3884 62.0889 74.7477 64.7183C80.1069 67.3456 87.5701 62.2831 91.4225 53.4112C95.2749 44.5392 94.053 35.2141 88.6938 32.5847Z" fill="#FAFAFA"/>
</svg>
