<svg width="79" height="96" viewBox="0 0 79 96" fill="none" xmlns="http://www.w3.org/2000/svg">
<path d="M78.7558 93.4376C77.7526 75.609 66.3575 60.7759 50.9499 55.7353C60.2824 51.0797 66.7633 40.9624 66.7633 29.2331C66.7633 13.0887 54.5003 0 39.3744 0C24.2485 0 11.9855 13.0887 11.9855 29.2331C11.9855 40.9624 18.4664 51.0797 27.8102 55.7353C12.4025 60.7759 1.0074 75.609 0.00426494 93.4376C-0.0746331 94.8211 0.95104 96 2.25849 96C3.44196 96 4.43383 95.0135 4.51272 93.7504C5.58348 74.2015 20.7883 58.7068 39.3744 58.7068C57.9605 58.7068 73.1653 74.2015 74.2473 93.7504C74.3149 95.0135 75.3068 96 76.5015 96C77.809 96 78.8347 94.8211 78.7558 93.4376ZM16.494 29.2331C16.494 15.7474 26.7394 4.81203 39.3744 4.81203C52.0093 4.81203 62.2548 15.7474 62.2548 29.2331C62.2548 42.7188 52.0093 53.6541 39.3744 53.6541C26.7394 53.6541 16.494 42.7188 16.494 29.2331Z" fill="#FAFAFA"/>
</svg>
